<?xml version="1.0" encoding="utf-8"?>
<!-- Generator: Adobe Illustrator 23.0.0, SVG Export Plug-In . SVG Version: 6.00 Build 0)  -->
<svg version="1.1" id="Layer_1" xmlns="http://www.w3.org/2000/svg" xmlns:xlink="http://www.w3.org/1999/xlink" x="0px" y="0px"
	 viewBox="0 0 303 126.8" style="enable-background:new 0 0 303 126.8;" xml:space="preserve">
<style type="text/css">
	.st0{fill:#1F52A3;}
</style>
<path class="st0" d="M19.8,10.3c5.8,2.5,9.3,5.8,9.5,6.6c-0.3-1.5-1.1-8.4-2-12.7c3.1,2.4,10.7,7.4,13.5,9.3C42,10.4,45.5,0,45.5,0
	s6.6,10.4,7.4,11.8c1.1-1.1,8.9-9.5,10.7-11.8c0.3,4.9,0.9,11.8,1.1,12.9c0.3-0.9,3.1-4.9,8-8c-2.4,4.4-3.1,9.5-3.5,14.7
	c-4.9-1.1-9.5-2.4-15.3-2.4c-10.1,0-19.6,2.5-27.7,7.4C25,19.5,22.7,14,19.8,10.3z M96.9,98.8l-4.6-5.2
	c-1.1,13.5-7.4,24.5-19.9,32.6l-2-7.4c-10.1,7.4-27.7,11.8-42.4,3.5c2-9.5,3.5-19.3,0-30.9c-8,12.9-15.8,18.1-15.8,18.1
	C6.6,100,6.9,81.3,8.9,75.8L0,79.3c0-6.6,4.6-19.9,11.3-27.4l-5.8-1.1c3.8-7.8,9.5-15,17.3-20.5c-2.4,3.5-2.4,11.8,4.4,15
	C24.7,40.5,24,35,26.9,31.6c3.1-3.1,7.4-2,10.4,0.3c-1.1-2.5-3.5-6-7.4-6c7.4-3.8,15.8-6,24.5-6c1.5,0,3.1,0,5.2,0.3
	c2.5,1.1,6.6,4.9,8,7.3c0,0,0-2.5-1.1-6c9.5,2.4,14.2,6.6,16.2,8c0.3,4.4,1.5,6.9,3.1,10.7c-3.1-3.5-11.3-9.3-15-10.4
	c0,0-0.3,3.5-1.5,5.4C61.8,29.5,58,28.1,58,28.1c-8,1.1-13.8,4.6-16.4,7.3l2.5,2.4c-5.2,1.5-8,5.8-8,5.8l4.6,0.9c0,0-0.3,5.2,6,8
	c5.4,3.1,13.8-0.9,21.1,2.4c-5.2-5.8-8-8-8-8s-2-0.3-3.5-0.3s-4.4,0.3-7.3-0.9c-1.1-0.9-3.1-1.5-4.4-2.4c0,0,3.5-3.5,8.4-4.6
	c0,0,4.6,1.1,8,3.8c2.5-2.4,4.9-2.4,4.9-2.4s-2.5,2.4-1.5,5.2c3.5,3.1,7.4,7.8,7.4,7.8c4.4-2.4,12.7-1.5,14.2,0.3
	c-2.4-3.1-5.4-5.4-7.8-7.4c-0.3-1.1-3.1-4.9-3.5-5.4c0,0,2.5,1.1,5.2,3.1c0.9-1.1,2-2,3.5-2.4c2,1.5,2.4,3.8,2,4.4
	c-1.1,1.1-1.5,1.1-1.5,1.1l4.4,4.6l0.3-3.1C98.3,62.2,103.8,78.3,96.9,98.8z M78.3,68.5v-7.4c0,0-3.1-1.1-6.9-3.8
	c-7.3,1.1-15.3,7.8-15.3,7.8s3.1,5.4,6,11.3C68,77.1,75.8,70.8,78.3,68.5z M85.2,81.5c0,0-0.9-3.1-3.1-5.8h-5.4
	c0,0-7.4,6.6-11.8,6.6c0,0,2.5,4.6,3.8,7.3c2.5-0.9,6.9-2.5,8.4-4.6c0,0,1.1,3.8,1.1,7.8C80.9,91.3,84.1,87.9,85.2,81.5z M87.6,57.9
	c-3.1,2.4-5.2,3.5-5.2,3.5v7.4c2,2.4,3.8,3.8,5.4,7.4C90.7,71.2,90.1,64.3,87.6,57.9z M116.7,64.3V21.5h13.8
	c8.9,0,15.3,5.2,15.3,14.2c0,8.9-6.6,14.2-15.3,14.2h-5.2v13.8C125.6,64.3,116.7,64.3,116.7,64.3z M125.4,42.3h4.9
	c4.4,0,7.4-2.4,7.4-6.6c0-4.4-3.1-6.6-7.4-6.6h-4.9V42.3z M257.1,110.8c-6,0-13.8-3.5-13.8-13.8V82.1h7.4v14.2c0,4.9,2.4,7.3,6,7.3
	c3.5,0,6-2.5,6-7.3V82.1h7.4v15C270.6,107.2,263.1,110.8,257.1,110.8 M190,110.8c-7.4,0-13.8-6.9-13.8-14.7S182.8,82,190,82
	c4.4,0,7.3,1.5,8.4,4.4l1.1-3.8h6.9v28h-6.9l-0.9-4C197.1,108.8,194,110.8,190,110.8 M191.6,88.7c-4.4,0-7.4,3.1-7.4,7.4
	c0,4.4,3.1,7.4,7.4,7.4c4.3,0,7.4-3.1,7.4-7.4C199.1,91.9,196,88.7,191.6,88.7 M242.7,35.7h7.4v28h-7.4V35.7z M247,31.9
	c-3.1,0-4.9-2.4-4.9-4.9c0-3.1,2.4-4.9,4.9-4.9c3.1,0,4.9,2.4,4.9,4.9C251.6,29.9,249.6,31.9,247,31.9 M230.9,47.5
	c0-3.1-1.5-4.9-4.6-4.9c-3.1,0-4.6,2-4.6,5.2v16.4h-7.4v-17c0-3.1-1.5-4.9-4.6-4.9c-3.1,0-4.6,2-4.6,5.2v16.4h-7.4v-28h6.9l1.1,3.8
	c0,0,1.5-4.6,7.3-4.6c3.1,0,6,1.1,7.8,4.4l0.3,0.3l0.3-0.3c3.1-3.8,6-4.4,8-4.4c6,0,10.1,4.6,10.1,10.7v18.2h-7.4v-17
	C232,47.5,230.9,47.5,230.9,47.5z M285.3,64.3v-28h6.9l1.1,4.4c1.1-2.5,3.8-4.6,7.3-4.6c0.9,0,1.5,0,2.4,0.3v7.4
	c-1.1-0.3-2-0.3-3.1-0.3c-3.8,0-6.6,2.4-6.6,6.9v13.8L285.3,64.3L285.3,64.3z M148.4,64.3v-28h6.9l1.1,4.4c1.1-2.5,3.8-4.6,7.3-4.6
	c0.9,0,1.5,0,2.4,0.3v7.4c-1.5-0.5-2.4-0.5-3.5-0.5c-3.8,0-6.6,2.4-6.6,6.9v13.8C155.9,63.9,148.4,64.3,148.4,64.3z M116.7,110.3
	V68.5h8v33.7h18.2v7.8L116.7,110.3z M159.6,110.8c-8.4,0-15-6-15-14.7c0-7.8,5.8-15,15-15c6.9,0,13.8,5.2,13.8,14.7
	c0,0.9,0,1.5-0.3,3.1h-20.5c0.9,3.1,3.5,5.2,7.3,5.2c3.1,0,5.4-1.1,7.4-3.1l4.9,4.9C169.2,108.8,164.5,110.8,159.6,110.8
	 M159.4,87.9c-3.1,0-6,2-6.9,4.9h12.9C165.1,90.1,162.5,87.9,159.4,87.9 M288.5,110.8c-8.4,0-15-6-15-14.7c0-7.8,5.8-15,15-15
	c6.9,0,13.8,5.2,13.8,14.7c0,0.9,0,1.5-0.3,3.1h-20.7c0.9,3.1,3.5,5.2,7.3,5.2c3.1,0,5.4-1.1,7.4-3.1l4.9,4.9
	C297.7,108.8,293.4,110.8,288.5,110.8 M288.2,87.9c-3.1,0-6,2-6.9,4.9h12.9C294,90.1,291.7,87.9,288.2,87.9 M268.6,64.4
	c-8.4,0-15-6-15-14.7c0-7.8,5.8-15,15-15c6.9,0,13.8,5.2,13.8,14.7c0,0.9,0,1.5-0.3,3.1h-20.7c0.9,3.1,3.5,5.2,7.3,5.2
	c3.1,0,5.4-1.1,7.4-3.1l4.9,4.9C277.8,62.4,273.2,64.4,268.6,64.4 M268,41.7c-3.1,0-6,2-6.9,4.9h12.9
	C273.8,44.1,271.3,41.7,268,41.7 M181,64.4c-8.4,0-15-6-15-14.7c0-7.8,5.8-15,15-15c6.9,0,13.8,5.2,13.8,14.7c0,0.9,0,1.5-0.3,3.1
	h-20.7c0.9,3.1,3.5,5.2,7.3,5.2c3.1,0,5.4-1.1,7.4-3.1l4.9,4.9C190,62.4,185.9,64.4,181,64.4 M180.7,41.7c-3.1,0-6,2-6.9,4.9h12.9
	C186.5,44.1,183.6,41.7,180.7,41.7 M224.7,88.7c-4.4,0-7.4,3.1-7.4,7.4c0,4.4,3.1,7.4,7.4,7.4s7.4-3.1,7.4-7.4
	C232.3,91.9,229.1,88.7,224.7,88.7 M232,85.5l1.1-3.5h6.9v26.5c0,5.2-1.5,8.9-4.9,11.8c-2.5,2-6,3.5-10.4,3.5
	c-5.8,0-10.1-2-13.5-5.2l4.6-6c2.4,2,4.9,3.8,8.4,3.8c5.8,0,8-3.1,8-7.3v-2c-2.4,2.5-5.2,3.5-7.8,3.5c-7.8,0-14.2-6.6-14.2-14.7
	s6.6-14.2,14.2-14.2C227.4,81.5,230.3,83.2,232,85.5"/>
</svg>
